HIERARCHY
ROOT joint_Root
{
	OFFSET 0.0 0.0 0.0
	CHANNELS 6 Xposition Yposition Zposition Zrotation Xrotation Yrotation 
	JOINT Hips
	{
		OFFSET -0.726466 93.3139 -2.00062
		CHANNELS 6 Xposition Yposition Zposition Zrotation Xrotation Yrotation 
		JOINT Spine
		{
			OFFSET 15.7357 0.0 0.0
			CHANNELS 6 Xposition Yposition Zposition Zrotation Xrotation Yrotation 
			JOINT Chest
			{
				OFFSET 8.98455 -0.406207 0.0
				CHANNELS 6 Xposition Yposition Zposition Zrotation Xrotation Yrotation 
				JOINT Neck
				{
					OFFSET 16.3773 0.0 0.0
					CHANNELS 6 Xposition Yposition Zposition Zrotation Xrotation Yrotation 
					JOINT Head
					{
						OFFSET 6.45672 0.0 0.0
						CHANNELS 6 Xposition Yposition Zposition Zrotation Xrotation Yrotation 
						End Site
						{
							OFFSET 0.0 0.0 0.0
						}
					}
				}
				JOINT Shoulder_L
				{
					OFFSET 12.9942 -0.242716 4.98039
					CHANNELS 6 Xposition Yposition Zposition Zrotation Xrotation Yrotation 
					JOINT UpperArm_L
					{
						OFFSET 5.34809 0.0 0.0
						CHANNELS 6 Xposition Yposition Zposition Zrotation Xrotation Yrotation 
						JOINT LowerArm_L
						{
							OFFSET 24.3286 1.87007e-05 0.0
							CHANNELS 6 Xposition Yposition Zposition Zrotation Xrotation Yrotation 
							JOINT Hand_L
							{
								OFFSET 22.2916 0.0 0.0
								CHANNELS 6 Xposition Yposition Zposition Zrotation Xrotation Yrotation 
								End Site
								{
									OFFSET 0.0 0.0 0.0
								}
							}
						}
					}
				}
				JOINT Shoulder_R
				{
					OFFSET 12.9945 -0.242716 -4.98039
					CHANNELS 6 Xposition Yposition Zposition Zrotation Xrotation Yrotation 
					JOINT UpperArm_R
					{
						OFFSET -5.34813 0.0 0.0
						CHANNELS 6 Xposition Yposition Zposition Zrotation Xrotation Yrotation 
						JOINT LowerArm_R
						{
							OFFSET -24.3289 0.000322201 0.0
							CHANNELS 6 Xposition Yposition Zposition Zrotation Xrotation Yrotation 
							JOINT Hand_R
							{
								OFFSET -22.2915 -0.000108084 0.0
								CHANNELS 6 Xposition Yposition Zposition Zrotation Xrotation Yrotation 
								End Site
								{
									OFFSET 0.0 0.0 0.0
								}
							}
						}
					}
				}
			}
		}
		JOINT UpperLeg_L
		{
			OFFSET -2.19248 -6.46944 0.0
			CHANNELS 6 Xposition Yposition Zposition Zrotation Xrotation Yrotation 
			JOINT LowerLeg_L
			{
				OFFSET 39.0811 0.0 -1.23785e-05
				CHANNELS 6 Xposition Yposition Zposition Zrotation Xrotation Yrotation 
				JOINT Foot_L
				{
					OFFSET 40.9854 0.0 -1.26872e-05
					CHANNELS 6 Xposition Yposition Zposition Zrotation Xrotation Yrotation 
					JOINT Toes_L
					{
						OFFSET 11.7543 0.0 0.0
						CHANNELS 6 Xposition Yposition Zposition Zrotation Xrotation Yrotation 
						End Site
						{
							OFFSET 0.0 0.0 0.0
						}
					}
				}
			}
		}
		JOINT UpperLeg_R
		{
			OFFSET -2.19251 6.46944 0.0
			CHANNELS 6 Xposition Yposition Zposition Zrotation Xrotation Yrotation 
			JOINT LowerLeg_R
			{
				OFFSET -39.0811 -0.00228153 -0.0401928
				CHANNELS 6 Xposition Yposition Zposition Zrotation Xrotation Yrotation 
				JOINT Foot_R
				{
					OFFSET -40.9854 0.0 0.0
					CHANNELS 6 Xposition Yposition Zposition Zrotation Xrotation Yrotation 
					JOINT Toes_R
					{
						OFFSET -11.7543 0.0 0.0
						CHANNELS 6 Xposition Yposition Zposition Zrotation Xrotation Yrotation 
						End Site
						{
							OFFSET 0.0 0.0 0.0
						}
					}
				}
			}
		}
	}
}
MOTION
Frames:	7
Frame Time:	0.0333333
0.000000 0.000000 0.000000 0.000000 0.000000 -0.000000 -0.133895 91.841800 -2.106760 87.283500 -3.272370 3.787410 15.735700 0.000005 -0.000001 82.546900 83.709200 -81.751000 8.984550 -0.406207 -0.000000 4.722760 -1.650130 1.658080 16.377300 -0.000001 -0.000001 3.283460 -0.142255 1.183630 6.456720 -0.000001 -0.000000 0.040771 0.854487 -2.655430 12.994200 -0.242716 4.980390 -89.813900 -0.551188 -71.343300 5.348090 -0.000007 -0.000001 -66.046600 39.357300 -16.856600 24.328600 0.000019 0.000005 4.141000 6.722110 -31.737100 22.291600 -0.000001 0.000005 5.912550 5.652600 -15.267600 12.994500 -0.242716 -4.980390 88.574600 4.370710 -71.918300 -5.348130 -0.000001 -0.000004 -58.509000 32.551600 -19.358900 -24.328900 0.000322 -0.000009 0.728659 1.298030 -29.347400 -22.291500 -0.000108 -0.000004 13.270300 5.663990 -16.535200 -2.192480 -6.469440 -0.000000 -170.563000 -17.650100 -5.243640 39.081100 -0.000007 -0.000012 -0.160441 0.327054 26.131200 40.985400 -0.000006 -0.000013 -4.996450 -2.186210 -65.431400 11.754300 -0.000000 0.000003 -0.000073 -0.000789 -16.608000 -2.192510 6.469440 -0.000001 176.163000 21.762200 175.674000 -39.081100 -0.002282 -0.040193 0.044750 -0.093281 23.951100 -40.985400 0.000008 0.000006 0.545121 3.178940 -63.683500 -11.754300 -0.000006 -0.000006 -0.005211 -0.063490 -19.156500
0.000000 0.000000 0.000000 0.000000 0.000000 -0.000000 -0.107409 91.837200 -2.042810 87.316000 -3.501070 3.905770 15.735700 0.000005 -0.000001 82.987100 83.729600 -82.137800 8.984550 -0.406207 -0.000000 4.694420 -1.551090 1.760350 16.377300 -0.000001 -0.000001 3.544380 0.137578 1.132890 6.456720 -0.000001 -0.000000 0.542831 1.194920 -2.804910 12.994200 -0.242716 4.980390 -89.826600 -0.511098 -71.253700 5.348090 -0.000007 -0.000001 -64.683200 38.584100 -17.512700 24.328600 0.000019 0.000005 4.923850 7.549980 -33.251000 22.291600 -0.000001 0.000005 6.433150 5.660230 -16.083200 12.994500 -0.242716 -4.980390 88.738200 3.855310 -71.862000 -5.348130 -0.000001 -0.000004 -55.766500 37.049800 -19.858200 -24.328900 0.000322 -0.000009 0.777669 1.230340 -32.335100 -22.291500 -0.000108 -0.000004 15.431100 5.668940 -17.213400 -2.192480 -6.469440 -0.000000 -170.567000 -17.636400 -5.016720 39.081100 -0.000007 -0.000012 -0.161784 0.330056 26.113000 40.985400 -0.000006 -0.000013 -5.050170 -2.416850 -65.510600 11.754300 -0.000000 0.000003 -0.000095 -0.000986 -16.615400 -2.192510 6.469440 -0.000001 176.047000 21.636000 175.816000 -39.081100 -0.002282 -0.040193 0.044774 -0.093254 23.969800 -40.985400 0.000008 0.000006 0.540262 3.330730 -63.719700 -11.754300 -0.000006 -0.000006 -0.005297 -0.064314 -19.190100
0.000000 0.000000 0.000000 0.000000 0.000000 -0.000000 -0.089838 91.828600 -1.986590 87.316100 -3.597850 4.022980 15.735700 0.000005 -0.000001 83.336300 83.770900 -82.419200 8.984550 -0.406207 -0.000000 4.621660 -1.468240 1.891370 16.377300 -0.000001 -0.000001 3.926020 0.419780 0.999431 6.456720 -0.000001 -0.000000 1.128740 1.427240 -2.839500 12.994200 -0.242716 4.980390 -89.860500 -0.403653 -70.929900 5.348090 -0.000007 -0.000001 -61.667800 36.928300 -19.325400 24.328600 0.000019 0.000005 5.645780 7.850070 -35.896500 22.291600 -0.000001 0.000005 7.617330 5.665840 -16.775800 12.994500 -0.242716 -4.980390 88.916800 3.289990 -71.765500 -5.348130 -0.000001 -0.000004 -52.149700 41.945300 -19.932100 -24.328900 0.000322 -0.000009 1.352040 1.734790 -37.955300 -22.291500 -0.000108 -0.000004 15.653700 5.673070 -17.902500 -2.192480 -6.469440 -0.000000 -170.533000 -17.609100 -4.836970 39.081100 -0.000007 -0.000012 -0.161106 0.328260 26.141400 40.985400 -0.000006 -0.000013 -5.085740 -2.537670 -65.593800 11.754300 -0.000000 0.000003 -0.000073 -0.000783 -16.607800 -2.192510 6.469440 -0.000001 175.993000 21.553400 175.946000 -39.081100 -0.002282 -0.040193 0.044202 -0.091830 24.001200 -40.985400 0.000008 0.000006 0.529400 3.297680 -63.762400 -11.754300 -0.000006 -0.000006 -0.005025 -0.061707 -19.083800
0.000000 0.000000 0.000000 0.000000 0.000000 -0.000000 -0.107598 91.800600 -1.919160 87.358800 -3.443540 4.237220 15.735700 0.000005 -0.000001 83.448200 83.788200 -82.446200 8.984550 -0.406207 -0.000000 4.591080 -1.442790 2.059650 16.377300 -0.000001 -0.000001 4.469580 0.507995 0.750728 6.456720 -0.000001 -0.000000 1.592200 1.494980 -2.960730 12.994200 -0.242716 4.980390 -89.865200 -0.384016 -70.654700 5.348090 -0.000007 -0.000001 -58.011600 33.353400 -21.857000 24.328600 0.000019 0.000005 5.953130 7.327300 -39.270800 22.291600 -0.000001 0.000005 9.119170 5.669580 -17.311700 12.994500 -0.242716 -4.980390 89.117500 2.630080 -71.443700 -5.348130 -0.000001 -0.000004 -47.754100 46.849300 -19.907100 -24.328900 0.000322 -0.000009 2.954570 2.886520 -45.701600 -22.291500 -0.000108 -0.000004 15.063400 5.675660 -18.405800 -2.192480 -6.469440 -0.000000 -170.485000 -17.565400 -4.653500 39.081100 -0.000007 -0.000012 -0.161621 0.327646 26.256300 40.985400 -0.000006 -0.000013 -5.071100 -2.365070 -65.672800 11.754300 -0.000000 0.000003 -0.000080 -0.000852 -16.610400 -2.192510 6.469440 -0.000001 175.842000 21.634200 176.170000 -39.081100 -0.002282 -0.040193 0.046155 -0.095407 24.181900 -40.985400 0.000008 0.000006 0.629478 3.254420 -63.959300 -11.754300 -0.000006 -0.000006 -0.005288 -0.064230 -19.186600
0.000000 0.000000 0.000000 0.000000 0.000000 -0.000000 -0.160461 91.782000 -1.865770 87.371900 -3.086500 4.403520 15.735700 0.000005 -0.000001 83.092700 83.838000 -81.966500 8.984550 -0.406207 -0.000000 4.485650 -1.511800 2.309240 16.377300 -0.000001 -0.000001 4.976860 0.428248 0.444186 6.456720 -0.000001 -0.000000 2.011120 1.512740 -3.240500 12.994200 -0.242716 4.980390 -89.809300 -0.540182 -70.555700 5.348090 -0.000007 -0.000001 -54.204900 28.218200 -24.692000 24.328600 0.000019 0.000005 5.517960 5.927800 -43.091700 22.291600 -0.000001 0.000005 10.740400 5.672760 -17.834700 12.994500 -0.242716 -4.980390 89.382000 1.790160 -70.951900 -5.348130 -0.000001 -0.000004 -42.588900 51.760400 -20.344100 -24.328900 0.000322 -0.000009 5.638350 4.056780 -54.371800 -22.291500 -0.000108 -0.000004 14.073800 5.679500 -19.418600 -2.192480 -6.469440 -0.000000 -170.416000 -17.446900 -4.558890 39.081100 -0.000007 -0.000012 -0.158986 0.321167 26.336900 40.985400 -0.000006 -0.000013 -5.053050 -2.126350 -65.691200 11.754300 -0.000000 0.000003 -0.000075 -0.000804 -16.608600 -2.192510 6.469440 -0.000001 175.770000 21.704000 176.374000 -39.081100 -0.002282 -0.040193 0.045310 -0.092946 24.315500 -40.985400 0.000008 0.000006 0.464059 2.972080 -64.050800 -11.754300 -0.000006 -0.000006 -0.005357 -0.064880 -19.213200
0.000000 0.000000 0.000000 0.000000 0.000000 -0.000000 -0.244356 91.756000 -1.829210 87.398300 -2.659250 4.589270 15.735700 0.000005 -0.000001 82.429100 83.884700 -81.190200 8.984550 -0.406207 -0.000000 4.378440 -1.645350 2.538020 16.377300 -0.000001 -0.000001 5.337260 0.261389 0.127911 6.456720 -0.000001 -0.000000 2.318390 1.421030 -3.457560 12.994200 -0.242716 4.980390 -89.667100 -0.943527 -70.566500 5.348090 -0.000007 -0.000001 -50.268800 22.223100 -27.853100 24.328600 0.000019 0.000005 4.119320 3.807700 -47.328200 22.291600 -0.000001 0.000005 12.342400 5.675060 -18.273000 12.994500 -0.242716 -4.980390 89.684300 0.891906 -70.503600 -5.348130 -0.000001 -0.000004 -37.277800 56.249600 -20.995600 -24.328900 0.000322 -0.000009 8.540210 4.348000 -63.208000 -22.291500 -0.000108 -0.000004 12.253700 5.681020 -20.053300 -2.192480 -6.469440 -0.000000 -170.309000 -17.325700 -4.457650 39.081100 -0.000007 -0.000012 -0.163283 0.328576 26.424900 40.985400 -0.000006 -0.000013 -5.028040 -1.708340 -65.694800 11.754300 -0.000000 0.000003 -0.000094 -0.000974 -16.615000 -2.192510 6.469440 -0.000001 175.675000 21.967900 176.598000 -39.081100 -0.002282 -0.040193 0.045687 -0.093114 24.469400 -40.985400 0.000008 0.000006 0.501998 2.842510 -64.249300 -11.754300 -0.000006 -0.000006 -0.005177 -0.063168 -19.143400
0.000000 0.000000 0.000000 0.000000 0.000000 -0.000000 -0.338545 91.751500 -1.793470 87.406000 -2.251860 4.599230 15.735700 0.000005 -0.000001 81.669200 83.987100 -80.319000 8.984550 -0.406207 -0.000000 4.156940 -1.782210 2.762180 16.377300 -0.000001 -0.000001 5.486620 0.065417 -0.036339 6.456720 -0.000001 -0.000000 2.526650 1.293450 -3.749220 12.994200 -0.242716 4.980390 -89.484400 -1.461900 -70.569900 5.348090 -0.000007 -0.000001 -46.641200 15.342100 -31.106400 24.328600 0.000019 0.000005 2.468670 1.938180 -51.897000 22.291600 -0.000001 0.000005 13.376600 5.677270 -18.764800 12.994500 -0.242716 -4.980390 90.021000 -0.058272 -70.171600 -5.348130 -0.000001 -0.000004 -32.924300 60.251400 -21.147700 -24.328900 0.000322 -0.000009 12.182000 4.139900 -71.506100 -22.291500 -0.000108 -0.000004 11.973700 5.681790 -20.615200 -2.192480 -6.469440 -0.000000 -170.254000 -17.306300 -4.515390 39.081100 -0.000007 -0.000012 -0.159756 0.321523 26.421700 40.985400 -0.000006 -0.000013 -4.997300 -1.355940 -65.626000 11.754300 -0.000000 0.000003 -0.000087 -0.000913 -16.612700 -2.192510 6.469440 -0.000001 175.673000 22.252900 176.669000 -39.081100 -0.002282 -0.040193 0.046063 -0.093662 24.533100 -40.985400 0.000008 0.000006 0.555050 2.740390 -64.340300 -11.754300 -0.000006 -0.000006 -0.005231 -0.063687 -19.164500
